<svg width="82" height="82" viewBox="0 0 82 82" fill="none" xmlns="http://www.w3.org/2000/svg">
<circle cx="41" cy="41" r="41" fill="#7C1111"/>
<path d="M8.06806 29.256L8.22806 21.368L8.61206 21.4L8.45206 29.256C8.4414 29.8107 8.53206 30.2107 8.72406 30.456C8.92673 30.6907 9.2894 30.808 9.81206 30.808C9.8334 30.808 9.84406 30.84 9.84406 30.904C9.84406 30.968 9.8334 31 9.81206 31C9.5774 31 9.33206 30.9947 9.07606 30.984C8.83073 30.9733 8.55873 30.968 8.26006 30.968C7.98273 30.968 7.7214 30.9733 7.47606 30.984C7.23073 30.9947 7.0014 31 6.78806 31C6.76673 31 6.75606 30.968 6.75606 30.904C6.75606 30.84 6.76673 30.808 6.78806 30.808C7.23606 30.808 7.55606 30.6907 7.74806 30.456C7.95073 30.2107 8.0574 29.8107 8.06806 29.256ZM19.1561 30.808C19.1881 30.808 19.2041 30.84 19.2041 30.904C19.2041 30.968 19.1881 31 19.1561 31C18.9001 31 18.6067 30.9947 18.2761 30.984C17.9561 30.9733 17.6201 30.968 17.2681 30.968C16.9267 30.968 16.6067 30.9733 16.3081 30.984C16.0201 30.9947 15.7587 31 15.5241 31C15.5027 31 15.4921 30.968 15.4921 30.904C15.4921 30.84 15.5027 30.808 15.5241 30.808C16.0574 30.808 16.3987 30.7387 16.5481 30.6C16.6974 30.4613 16.7614 30.1627 16.7401 29.704L16.4361 21.976L16.9641 21.24L12.8041 30.888C12.7934 30.9307 12.7507 30.952 12.6761 30.952C12.6014 30.952 12.5534 30.9307 12.5321 30.888L8.51606 22.328C8.1534 21.5707 7.61473 21.192 6.90006 21.192C6.87873 21.192 6.86806 21.16 6.86806 21.096C6.86806 21.032 6.87873 21 6.90006 21C7.07073 21 7.25206 21.0053 7.44406 21.016C7.64673 21.0267 7.81206 21.032 7.94006 21.032C8.11073 21.032 8.2654 21.0267 8.40406 21.016C8.5534 21.0053 8.6654 21 8.74006 21C8.8894 21 9.00673 21.048 9.09206 21.144C9.1774 21.24 9.3054 21.4693 9.47606 21.832L13.1241 29.512L12.6281 30.344L16.5321 21.4C16.5854 21.272 16.6547 21.176 16.7401 21.112C16.8254 21.0373 16.9161 21 17.0121 21C17.0761 21 17.1614 21.0053 17.2681 21.016C17.3747 21.0267 17.5027 21.032 17.6521 21.032C17.9401 21.032 18.1747 21.0267 18.3561 21.016C18.5374 21.0053 18.7294 21 18.9321 21C18.9534 21 18.9641 21.032 18.9641 21.096C18.9641 21.16 18.9534 21.192 18.9321 21.192C18.4201 21.192 18.0414 21.2667 17.7961 21.416C17.5507 21.5653 17.4387 21.8587 17.4601 22.296L17.7801 29.704C17.7907 30.0133 17.8281 30.248 17.8921 30.408C17.9561 30.568 18.0841 30.6747 18.2761 30.728C18.4787 30.7813 18.7721 30.808 19.1561 30.808ZM22.1634 29.848L21.8914 29.592L28.9314 22.088L29.1874 22.328L22.1634 29.848ZM20.0834 31C20.0621 31 20.0514 30.968 20.0514 30.904C20.0514 30.84 20.0621 30.808 20.0834 30.808C20.4781 30.808 20.7768 30.7813 20.9794 30.728C21.1821 30.6747 21.3154 30.568 21.3794 30.408C21.4541 30.248 21.4914 30.0133 21.4914 29.704V22.296C21.4914 21.9867 21.4541 21.7573 21.3794 21.608C21.3154 21.448 21.1821 21.3413 20.9794 21.288C20.7874 21.224 20.4941 21.192 20.0994 21.192C20.0781 21.192 20.0674 21.16 20.0674 21.096C20.0674 21.032 20.0781 21 20.0994 21C20.3554 21 20.6434 21.0107 20.9634 21.032C21.2941 21.0427 21.6354 21.048 21.9874 21.048C22.3821 21.048 22.7394 21.0427 23.0594 21.032C23.3794 21.0107 23.6674 21 23.9234 21C23.9448 21 23.9554 21.032 23.9554 21.096C23.9554 21.16 23.9448 21.192 23.9234 21.192C23.5288 21.192 23.2301 21.224 23.0274 21.288C22.8248 21.352 22.6861 21.464 22.6114 21.624C22.5474 21.784 22.5154 22.0187 22.5154 22.328V29.704C22.5154 30.0133 22.5474 30.248 22.6114 30.408C22.6754 30.568 22.8088 30.6747 23.0114 30.728C23.2248 30.7813 23.5288 30.808 23.9234 30.808C23.9448 30.808 23.9554 30.84 23.9554 30.904C23.9554 30.968 23.9448 31 23.9234 31C23.6568 31 23.3634 30.9947 23.0434 30.984C22.7341 30.9733 22.3821 30.968 21.9874 30.968C21.6354 30.968 21.2941 30.9733 20.9634 30.984C20.6328 30.9947 20.3394 31 20.0834 31ZM27.0594 31C27.0381 31 27.0274 30.968 27.0274 30.904C27.0274 30.84 27.0381 30.808 27.0594 30.808C27.4754 30.808 27.7794 30.7813 27.9714 30.728C28.1741 30.6747 28.3074 30.568 28.3714 30.408C28.4354 30.248 28.4674 30.0133 28.4674 29.704V22.328C28.4674 22.0187 28.4354 21.784 28.3714 21.624C28.3074 21.464 28.1741 21.352 27.9714 21.288C27.7794 21.224 27.4754 21.192 27.0594 21.192C27.0381 21.192 27.0274 21.16 27.0274 21.096C27.0274 21.032 27.0381 21 27.0594 21C27.3261 21 27.6141 21.0107 27.9234 21.032C28.2434 21.0427 28.6008 21.048 28.9954 21.048C29.3474 21.048 29.6888 21.0427 30.0194 21.032C30.3501 21.0107 30.6434 21 30.8994 21C30.9208 21 30.9314 21.032 30.9314 21.096C30.9314 21.16 30.9208 21.192 30.8994 21.192C30.5048 21.192 30.2061 21.224 30.0034 21.288C29.8008 21.3413 29.6674 21.448 29.6034 21.608C29.5394 21.7573 29.5074 21.9867 29.5074 22.296V29.704C29.5074 30.0133 29.5394 30.248 29.6034 30.408C29.6674 30.568 29.8008 30.6747 30.0034 30.728C30.2061 30.7813 30.5048 30.808 30.8994 30.808C30.9208 30.808 30.9314 30.84 30.9314 30.904C30.9314 30.968 30.9208 31 30.8994 31C30.6434 31 30.3501 30.9947 30.0194 30.984C29.6888 30.9733 29.3474 30.968 28.9954 30.968C28.6008 30.968 28.2434 30.9733 27.9234 30.984C27.6141 30.9947 27.3261 31 27.0594 31ZM38.0846 31C38.0632 31 38.0526 30.968 38.0526 30.904C38.0526 30.84 38.0632 30.808 38.0846 30.808C38.4686 30.808 38.7139 30.7653 38.8206 30.68C38.9379 30.584 38.9166 30.4187 38.7566 30.184L33.6046 22.36C33.3272 21.9333 33.0499 21.6347 32.7726 21.464C32.4952 21.2827 32.1752 21.192 31.8126 21.192C31.7912 21.192 31.7806 21.16 31.7806 21.096C31.7806 21.032 31.7912 21 31.8126 21C32.0046 21 32.2072 21.0107 32.4206 21.032C32.6339 21.0427 32.8366 21.048 33.0286 21.048C33.4659 21.048 33.8659 21.0427 34.2286 21.032C34.5912 21.0107 34.9059 21 35.1726 21C35.2046 21 35.2206 21.032 35.2206 21.096C35.2206 21.16 35.2046 21.192 35.1726 21.192C34.7886 21.192 34.5379 21.24 34.4206 21.336C34.3139 21.4213 34.3406 21.5867 34.5006 21.832L39.6846 29.672C39.9619 30.088 40.2446 30.3813 40.5326 30.552C40.8312 30.7227 41.1992 30.808 41.6366 30.808C41.6579 30.808 41.6686 30.84 41.6686 30.904C41.6686 30.968 41.6579 31 41.6366 31C41.4232 31 41.1832 30.9947 40.9166 30.984C40.6606 30.9733 40.3886 30.968 40.1006 30.968C39.6739 30.968 39.3006 30.9733 38.9806 30.984C38.6606 30.9947 38.3619 31 38.0846 31ZM31.7486 31C31.7166 31 31.7006 30.968 31.7006 30.904C31.7006 30.84 31.7166 30.808 31.7486 30.808C32.1006 30.808 32.4632 30.6907 32.8366 30.456C33.2099 30.2107 33.5726 29.8427 33.9246 29.352L36.3406 26.04L36.5326 26.216L34.2766 29.368C33.9566 29.8267 33.8446 30.184 33.9406 30.44C34.0366 30.6853 34.3406 30.808 34.8526 30.808C34.8846 30.808 34.9006 30.84 34.9006 30.904C34.9006 30.968 34.8846 31 34.8526 31C34.5646 31 34.2926 30.9947 34.0366 30.984C33.7806 30.9733 33.4392 30.968 33.0126 30.968C32.7459 30.968 32.5272 30.9733 32.3566 30.984C32.1966 30.9947 31.9939 31 31.7486 31ZM36.7886 25.96L36.5806 25.8L38.7406 22.744C39.1032 22.2427 39.2419 21.8587 39.1566 21.592C39.0712 21.3253 38.7779 21.192 38.2766 21.192C38.2446 21.192 38.2286 21.16 38.2286 21.096C38.2286 21.032 38.2446 21 38.2766 21C38.5539 21 38.8206 21.0107 39.0766 21.032C39.3432 21.0427 39.6846 21.048 40.1006 21.048C40.3779 21.048 40.5966 21.0427 40.7566 21.032C40.9272 21.0107 41.1299 21 41.3646 21C41.3966 21 41.4126 21.032 41.4126 21.096C41.4126 21.16 41.3966 21.192 41.3646 21.192C41.0126 21.192 40.6446 21.3253 40.2606 21.592C39.8766 21.8587 39.4926 22.2533 39.1086 22.776L36.7886 25.96ZM45.3221 25.704L45.5621 25.368H48.8581L48.9701 25.704H45.3221ZM53.0981 30.808C53.1407 30.808 53.1621 30.84 53.1621 30.904C53.1621 30.968 53.1407 31 53.0981 31C52.7887 31 52.4741 30.9893 52.1541 30.968C51.8341 30.9467 51.5247 30.936 51.2261 30.936C50.8954 30.936 50.6074 30.9467 50.3621 30.968C50.1167 30.9893 49.8447 31 49.5461 31C49.5034 31 49.4821 30.968 49.4821 30.904C49.4821 30.84 49.5034 30.808 49.5461 30.808C50.1114 30.808 50.4634 30.728 50.6021 30.568C50.7407 30.3973 50.7034 30.0827 50.4901 29.624L46.9381 22.12L47.3381 21.624L44.2341 28.968C43.9674 29.6187 43.9514 30.088 44.1861 30.376C44.4207 30.664 44.8847 30.808 45.5781 30.808C45.6314 30.808 45.6581 30.84 45.6581 30.904C45.6581 30.968 45.6314 31 45.5781 31C45.2581 31 44.9647 30.9893 44.6981 30.968C44.4314 30.9467 44.0954 30.936 43.6901 30.936C43.3061 30.936 42.9967 30.9467 42.7621 30.968C42.5381 30.9893 42.2607 31 41.9301 31C41.8874 31 41.8661 30.968 41.8661 30.904C41.8661 30.84 41.8874 30.808 41.9301 30.808C42.2181 30.808 42.4687 30.7547 42.6821 30.648C42.8954 30.5307 43.0927 30.3333 43.2741 30.056C43.4661 29.768 43.6741 29.3573 43.8981 28.824L47.2741 20.856C47.2954 20.824 47.3327 20.808 47.3861 20.808C47.4394 20.808 47.4714 20.824 47.4821 20.856L51.2581 28.808C51.5034 29.3307 51.7221 29.7413 51.9141 30.04C52.1061 30.328 52.2927 30.5307 52.4741 30.648C52.6661 30.7547 52.8741 30.808 53.0981 30.808ZM55.7884 29.848L55.5164 29.592L62.5564 22.088L62.8124 22.328L55.7884 29.848ZM53.7084 31C53.6871 31 53.6764 30.968 53.6764 30.904C53.6764 30.84 53.6871 30.808 53.7084 30.808C54.1031 30.808 54.4018 30.7813 54.6044 30.728C54.8071 30.6747 54.9404 30.568 55.0044 30.408C55.0791 30.248 55.1164 30.0133 55.1164 29.704V22.296C55.1164 21.9867 55.0791 21.7573 55.0044 21.608C54.9404 21.448 54.8071 21.3413 54.6044 21.288C54.4124 21.224 54.1191 21.192 53.7244 21.192C53.7031 21.192 53.6924 21.16 53.6924 21.096C53.6924 21.032 53.7031 21 53.7244 21C53.9804 21 54.2684 21.0107 54.5884 21.032C54.9191 21.0427 55.2604 21.048 55.6124 21.048C56.0071 21.048 56.3644 21.0427 56.6844 21.032C57.0044 21.0107 57.2924 21 57.5484 21C57.5698 21 57.5804 21.032 57.5804 21.096C57.5804 21.16 57.5698 21.192 57.5484 21.192C57.1538 21.192 56.8551 21.224 56.6524 21.288C56.4498 21.352 56.3111 21.464 56.2364 21.624C56.1724 21.784 56.1404 22.0187 56.1404 22.328V29.704C56.1404 30.0133 56.1724 30.248 56.2364 30.408C56.3004 30.568 56.4338 30.6747 56.6364 30.728C56.8498 30.7813 57.1538 30.808 57.5484 30.808C57.5698 30.808 57.5804 30.84 57.5804 30.904C57.5804 30.968 57.5698 31 57.5484 31C57.2818 31 56.9884 30.9947 56.6684 30.984C56.3591 30.9733 56.0071 30.968 55.6124 30.968C55.2604 30.968 54.9191 30.9733 54.5884 30.984C54.2578 30.9947 53.9644 31 53.7084 31ZM60.6844 31C60.6631 31 60.6524 30.968 60.6524 30.904C60.6524 30.84 60.6631 30.808 60.6844 30.808C61.1004 30.808 61.4044 30.7813 61.5964 30.728C61.7991 30.6747 61.9324 30.568 61.9964 30.408C62.0604 30.248 62.0924 30.0133 62.0924 29.704V22.328C62.0924 22.0187 62.0604 21.784 61.9964 21.624C61.9324 21.464 61.7991 21.352 61.5964 21.288C61.4044 21.224 61.1004 21.192 60.6844 21.192C60.6631 21.192 60.6524 21.16 60.6524 21.096C60.6524 21.032 60.6631 21 60.6844 21C60.9511 21 61.2391 21.0107 61.5484 21.032C61.8684 21.0427 62.2258 21.048 62.6204 21.048C62.9724 21.048 63.3138 21.0427 63.6444 21.032C63.9751 21.0107 64.2684 21 64.5244 21C64.5458 21 64.5564 21.032 64.5564 21.096C64.5564 21.16 64.5458 21.192 64.5244 21.192C64.1298 21.192 63.8311 21.224 63.6284 21.288C63.4258 21.3413 63.2924 21.448 63.2284 21.608C63.1644 21.7573 63.1324 21.9867 63.1324 22.296V29.704C63.1324 30.0133 63.1644 30.248 63.2284 30.408C63.2924 30.568 63.4258 30.6747 63.6284 30.728C63.8311 30.7813 64.1298 30.808 64.5244 30.808C64.5458 30.808 64.5564 30.84 64.5564 30.904C64.5564 30.968 64.5458 31 64.5244 31C64.2684 31 63.9751 30.9947 63.6444 30.984C63.3138 30.9733 62.9724 30.968 62.6204 30.968C62.2258 30.968 61.8684 30.9733 61.5484 30.984C61.2391 30.9947 60.9511 31 60.6844 31ZM66.0136 31.192C65.7896 31.192 65.6029 31.144 65.4536 31.048C65.3042 30.952 65.2296 30.8027 65.2296 30.6C65.2296 30.408 65.2989 30.2747 65.4376 30.2C65.5762 30.1253 65.7362 30.088 65.9176 30.088C65.9709 30.088 66.0242 30.088 66.0776 30.088C66.1416 30.088 66.2002 30.088 66.2536 30.088C66.6376 30.088 66.9842 29.9333 67.2936 29.624C67.6029 29.304 67.8749 28.8827 68.1096 28.36C68.3442 27.8267 68.5416 27.2347 68.7016 26.584C68.8616 25.9227 68.9789 25.2507 69.0536 24.568C69.1389 23.8853 69.1816 23.2347 69.1816 22.616C69.1816 22.328 69.1442 22.0773 69.0696 21.864C68.9949 21.64 68.8456 21.4747 68.6216 21.368C68.3976 21.2507 68.0562 21.192 67.5976 21.192C67.5656 21.192 67.5496 21.16 67.5496 21.096C67.5496 21.032 67.5656 21 67.5976 21C67.6616 21 67.8429 21 68.1416 21C68.4402 21 68.8136 21 69.2616 21C69.7096 21 70.1896 21 70.7016 21C71.2242 21 71.7416 21 72.2536 21C72.7762 21 73.2562 21 73.6936 21C74.1309 21 74.4882 21 74.7656 21C75.0429 21 75.2029 21 75.2456 21C75.2776 21 75.2936 21.032 75.2936 21.096C75.2936 21.16 75.2776 21.192 75.2456 21.192C74.8509 21.192 74.5522 21.224 74.3496 21.288C74.1469 21.3413 74.0136 21.448 73.9496 21.608C73.8856 21.7573 73.8536 21.9867 73.8536 22.296V29.704C73.8536 30.0133 73.8856 30.248 73.9496 30.408C74.0136 30.568 74.1469 30.6747 74.3496 30.728C74.5522 30.7813 74.8509 30.808 75.2456 30.808C75.2776 30.808 75.2936 30.84 75.2936 30.904C75.2936 30.968 75.2776 31 75.2456 31C75.0002 31 74.7122 30.9947 74.3816 30.984C74.0509 30.9733 73.7096 30.968 73.3576 30.968C72.9842 30.968 72.6322 30.9733 72.3016 30.984C71.9816 30.9947 71.6936 31 71.4376 31C71.4056 31 71.3896 30.968 71.3896 30.904C71.3896 30.84 71.4056 30.808 71.4376 30.808C71.8429 30.808 72.1416 30.7813 72.3336 30.728C72.5362 30.6747 72.6696 30.568 72.7336 30.408C72.7976 30.248 72.8296 30.0133 72.8296 29.704V22.36C72.8296 22.0293 72.8082 21.7947 72.7656 21.656C72.7229 21.5173 72.6109 21.4373 72.4296 21.416C72.2589 21.384 71.9709 21.368 71.5656 21.368H70.7496C70.4616 21.368 70.2269 21.3947 70.0456 21.448C69.8749 21.5013 69.7522 21.6187 69.6776 21.8C69.6029 21.9707 69.5656 22.2427 69.5656 22.616C69.5656 23.0427 69.5442 23.5493 69.5016 24.136C69.4589 24.7227 69.3842 25.3413 69.2776 25.992C69.1709 26.632 69.0322 27.2613 68.8616 27.88C68.6909 28.488 68.4722 29.0427 68.2056 29.544C67.9496 30.0453 67.6402 30.4453 67.2776 30.744C66.9149 31.0427 66.4936 31.192 66.0136 31.192ZM36.4459 43.808C36.4459 43.3173 36.5632 42.8853 36.7979 42.512C37.0325 42.1387 37.3312 41.7973 37.6939 41.488C38.0672 41.1787 38.4619 40.8853 38.8779 40.608C39.2939 40.32 39.6832 40.0213 40.0459 39.712C40.4192 39.4027 40.7232 39.072 40.9579 38.72C41.1925 38.368 41.3099 37.9627 41.3099 37.504C41.3099 37.024 41.1819 36.656 40.9259 36.4C40.6699 36.1333 40.3339 36 39.9179 36C39.5125 36 39.1979 36.1227 38.9739 36.368C38.7605 36.6133 38.6539 37.0027 38.6539 37.536C38.6539 38.0907 38.7712 38.656 39.0059 39.232C39.2405 39.7973 39.5659 40.3573 39.9819 40.912C40.3979 41.4667 40.8725 42.0053 41.4059 42.528C41.9499 43.0507 42.5205 43.536 43.1179 43.984C43.7899 44.4853 44.4299 44.896 45.0379 45.216C45.6459 45.5253 46.1579 45.7227 46.5739 45.808C46.6272 45.8187 46.6485 45.856 46.6379 45.92C46.6272 45.9733 46.6059 46 46.5739 46C46.3392 46 46.0672 46 45.7579 46C45.4485 46 45.1445 46 44.8459 46C44.7072 46 44.5259 45.9573 44.3019 45.872C44.0779 45.7867 43.7899 45.6373 43.4379 45.424C43.0965 45.2 42.6752 44.88 42.1739 44.464C41.6405 44.0373 41.1179 43.5733 40.6059 43.072C40.0939 42.5707 39.6245 42.0533 39.1979 41.52C38.7819 40.976 38.4459 40.448 38.1899 39.936C38.0512 39.6267 37.9392 39.328 37.8539 39.04C37.7685 38.752 37.7259 38.4747 37.7259 38.208C37.7259 37.7387 37.8379 37.312 38.0619 36.928C38.2859 36.544 38.5952 36.24 38.9899 36.016C39.3845 35.7813 39.8485 35.664 40.3819 35.664C40.6699 35.664 40.9579 35.712 41.2459 35.808C41.5339 35.8933 41.7739 36.0533 41.9659 36.288C42.1579 36.512 42.2539 36.832 42.2539 37.248C42.2539 37.7067 42.1365 38.1067 41.9019 38.448C41.6779 38.7787 41.3792 39.088 41.0059 39.376C40.6432 39.6533 40.2592 39.9253 39.8539 40.192C39.4485 40.448 39.0645 40.7253 38.7019 41.024C38.3392 41.312 38.0405 41.6373 37.8059 42C37.5819 42.352 37.4699 42.768 37.4699 43.248C37.4699 43.696 37.5819 44.112 37.8059 44.496C38.0405 44.8693 38.3605 45.168 38.7659 45.392C39.1712 45.6053 39.6299 45.712 40.1419 45.712C40.6432 45.712 41.1072 45.6053 41.5339 45.392C41.9605 45.168 42.3232 44.8747 42.6219 44.512C42.9312 44.1387 43.1659 43.7173 43.3259 43.248C43.4965 42.768 43.5819 42.272 43.5819 41.76C43.5819 41.4187 43.5125 41.1413 43.3739 40.928C43.2459 40.7147 42.9365 40.608 42.4459 40.608C42.4139 40.608 42.3925 40.576 42.3819 40.512C42.3819 40.448 42.4032 40.416 42.4459 40.416L45.7899 40.4C45.8325 40.4 45.8539 40.432 45.8539 40.496C45.8539 40.56 45.8325 40.592 45.7899 40.592C45.4165 40.592 45.1392 40.6293 44.9579 40.704C44.7765 40.768 44.6485 40.8693 44.5739 41.008C44.4992 41.1467 44.4299 41.3227 44.3659 41.536C44.2699 41.8987 44.1365 42.2933 43.9659 42.72C43.8059 43.136 43.5979 43.552 43.3419 43.968C43.0965 44.3733 42.7925 44.7467 42.4299 45.088C42.0672 45.4187 41.6352 45.6853 41.1339 45.888C40.6432 46.0907 40.0725 46.192 39.4219 46.192C38.7392 46.192 38.1739 46.08 37.7259 45.856C37.2885 45.6213 36.9632 45.3227 36.7499 44.96C36.5472 44.5867 36.4459 44.2027 36.4459 43.808ZM10.9875 55.528L11.1635 55.352C11.7928 55.352 12.3422 55.4693 12.8115 55.704C13.2915 55.9387 13.6595 56.2587 13.9155 56.664C14.1822 57.0693 14.3155 57.5333 14.3155 58.056C14.3155 58.6213 14.1768 59.1333 13.8995 59.592C13.6222 60.0507 13.2382 60.4133 12.7475 60.68C12.2675 60.936 11.7288 61.064 11.1315 61.064C10.7902 61.064 10.4008 61.048 9.9635 61.016C9.53683 60.984 9.14217 60.968 8.7795 60.968C8.4275 60.968 8.08617 60.9733 7.7555 60.984C7.4355 60.9947 7.14217 61 6.8755 61C6.85417 61 6.8435 60.968 6.8435 60.904C6.8435 60.84 6.85417 60.808 6.8755 60.808C7.2595 60.808 7.55283 60.7813 7.7555 60.728C7.95817 60.6747 8.09683 60.568 8.1715 60.408C8.24617 60.248 8.2835 60.0133 8.2835 59.704V52.296C8.2835 51.9867 8.24617 51.7573 8.1715 51.608C8.1075 51.448 7.97417 51.3413 7.7715 51.288C7.5795 51.224 7.2915 51.192 6.9075 51.192C6.8755 51.192 6.8595 51.16 6.8595 51.096C6.8595 51.032 6.8755 51 6.9075 51C7.1635 51 7.4515 51.0107 7.7715 51.032C8.0915 51.0427 8.4275 51.048 8.7795 51.048C9.05683 51.048 9.37683 51.032 9.7395 51C10.1022 50.968 10.4115 50.952 10.6675 50.952C11.2968 50.952 11.8088 51.048 12.2035 51.24C12.5982 51.4213 12.8862 51.672 13.0675 51.992C13.2595 52.312 13.3555 52.6693 13.3555 53.064C13.3555 53.672 13.1315 54.1893 12.6835 54.616C12.2462 55.0427 11.6808 55.3467 10.9875 55.528ZM10.3155 51.192C10.0702 51.192 9.87283 51.2133 9.7235 51.256C9.57417 51.2987 9.4675 51.4 9.4035 51.56C9.3395 51.7093 9.3075 51.9653 9.3075 52.328V55.464L8.7955 55.336C9.13683 55.3573 9.4195 55.3733 9.6435 55.384C9.8675 55.384 9.9955 55.384 10.0275 55.384C10.8488 55.384 11.4355 55.176 11.7875 54.76C12.1395 54.3333 12.3155 53.8107 12.3155 53.192C12.3155 52.8187 12.2462 52.4827 12.1075 52.184C11.9795 51.8747 11.7715 51.6347 11.4835 51.464C11.1955 51.2827 10.8062 51.192 10.3155 51.192ZM10.8915 60.776C11.6915 60.776 12.2728 60.5733 12.6355 60.168C13.0088 59.752 13.1955 59.1813 13.1955 58.456C13.1955 57.656 12.9608 57 12.4915 56.488C12.0222 55.976 11.3662 55.72 10.5235 55.72C10.2568 55.7093 9.9795 55.7093 9.6915 55.72C9.41417 55.7307 9.1315 55.7573 8.8435 55.8L9.3075 55.624V59.704C9.3075 59.96 9.34483 60.168 9.4195 60.328C9.49417 60.488 9.6435 60.6053 9.8675 60.68C10.1022 60.744 10.4435 60.776 10.8915 60.776ZM18.5174 55.704L18.7574 55.368H22.0534L22.1654 55.704H18.5174ZM26.2934 60.808C26.336 60.808 26.3574 60.84 26.3574 60.904C26.3574 60.968 26.336 61 26.2934 61C25.984 61 25.6694 60.9893 25.3494 60.968C25.0294 60.9467 24.72 60.936 24.4214 60.936C24.0907 60.936 23.8027 60.9467 23.5574 60.968C23.312 60.9893 23.04 61 22.7414 61C22.6987 61 22.6774 60.968 22.6774 60.904C22.6774 60.84 22.6987 60.808 22.7414 60.808C23.3067 60.808 23.6587 60.728 23.7974 60.568C23.936 60.3973 23.8987 60.0827 23.6854 59.624L20.1334 52.12L20.5334 51.624L17.4294 58.968C17.1627 59.6187 17.1467 60.088 17.3814 60.376C17.616 60.664 18.08 60.808 18.7734 60.808C18.8267 60.808 18.8534 60.84 18.8534 60.904C18.8534 60.968 18.8267 61 18.7734 61C18.4534 61 18.16 60.9893 17.8934 60.968C17.6267 60.9467 17.2907 60.936 16.8854 60.936C16.5014 60.936 16.192 60.9467 15.9574 60.968C15.7334 60.9893 15.456 61 15.1254 61C15.0827 61 15.0614 60.968 15.0614 60.904C15.0614 60.84 15.0827 60.808 15.1254 60.808C15.4134 60.808 15.664 60.7547 15.8774 60.648C16.0907 60.5307 16.288 60.3333 16.4694 60.056C16.6614 59.768 16.8694 59.3573 17.0934 58.824L20.4694 50.856C20.4907 50.824 20.528 50.808 20.5814 50.808C20.6347 50.808 20.6667 50.824 20.6774 50.856L24.4534 58.808C24.6987 59.3307 24.9174 59.7413 25.1094 60.04C25.3014 60.328 25.488 60.5307 25.6694 60.648C25.8614 60.7547 26.0694 60.808 26.2934 60.808ZM27.2558 61.192C27.0318 61.192 26.8451 61.144 26.6958 61.048C26.5464 60.952 26.4718 60.8027 26.4718 60.6C26.4718 60.408 26.5411 60.2747 26.6798 60.2C26.8184 60.1253 26.9784 60.088 27.1598 60.088C27.2131 60.088 27.2664 60.088 27.3198 60.088C27.3838 60.088 27.4424 60.088 27.4958 60.088C27.8798 60.088 28.2264 59.9333 28.5358 59.624C28.8451 59.304 29.1171 58.8827 29.3518 58.36C29.5864 57.8267 29.7838 57.2347 29.9438 56.584C30.1038 55.9227 30.2211 55.2507 30.2958 54.568C30.3811 53.8853 30.4238 53.2347 30.4238 52.616C30.4238 52.328 30.3864 52.0773 30.3118 51.864C30.2371 51.64 30.0878 51.4747 29.8638 51.368C29.6398 51.2507 29.2984 51.192 28.8398 51.192C28.8078 51.192 28.7918 51.16 28.7918 51.096C28.7918 51.032 28.8078 51 28.8398 51C28.9038 51 29.0851 51 29.3838 51C29.6824 51 30.0558 51 30.5038 51C30.9518 51 31.4318 51 31.9438 51C32.4664 51 32.9838 51 33.4958 51C34.0184 51 34.4984 51 34.9358 51C35.3731 51 35.7304 51 36.0078 51C36.2851 51 36.4451 51 36.4878 51C36.5198 51 36.5358 51.032 36.5358 51.096C36.5358 51.16 36.5198 51.192 36.4878 51.192C36.0931 51.192 35.7944 51.224 35.5918 51.288C35.3891 51.3413 35.2558 51.448 35.1918 51.608C35.1278 51.7573 35.0958 51.9867 35.0958 52.296V59.704C35.0958 60.0133 35.1278 60.248 35.1918 60.408C35.2558 60.568 35.3891 60.6747 35.5918 60.728C35.7944 60.7813 36.0931 60.808 36.4878 60.808C36.5198 60.808 36.5358 60.84 36.5358 60.904C36.5358 60.968 36.5198 61 36.4878 61C36.2424 61 35.9544 60.9947 35.6238 60.984C35.2931 60.9733 34.9518 60.968 34.5998 60.968C34.2264 60.968 33.8744 60.9733 33.5438 60.984C33.2238 60.9947 32.9358 61 32.6798 61C32.6478 61 32.6318 60.968 32.6318 60.904C32.6318 60.84 32.6478 60.808 32.6798 60.808C33.0851 60.808 33.3838 60.7813 33.5758 60.728C33.7784 60.6747 33.9118 60.568 33.9758 60.408C34.0398 60.248 34.0718 60.0133 34.0718 59.704V52.36C34.0718 52.0293 34.0504 51.7947 34.0078 51.656C33.9651 51.5173 33.8531 51.4373 33.6718 51.416C33.5011 51.384 33.2131 51.368 32.8078 51.368H31.9918C31.7038 51.368 31.4691 51.3947 31.2878 51.448C31.1171 51.5013 30.9944 51.6187 30.9198 51.8C30.8451 51.9707 30.8078 52.2427 30.8078 52.616C30.8078 53.0427 30.7864 53.5493 30.7438 54.136C30.7011 54.7227 30.6264 55.3413 30.5198 55.992C30.4131 56.632 30.2744 57.2613 30.1038 57.88C29.9331 58.488 29.7144 59.0427 29.4478 59.544C29.1918 60.0453 28.8824 60.4453 28.5198 60.744C28.1571 61.0427 27.7358 61.192 27.2558 61.192ZM44.4701 61H37.7661C37.7448 61 37.7341 60.968 37.7341 60.904C37.7341 60.84 37.7448 60.808 37.7661 60.808C38.1608 60.808 38.4541 60.7813 38.6461 60.728C38.8381 60.6747 38.9661 60.568 39.0301 60.408C39.1048 60.248 39.1421 60.0133 39.1421 59.704V52.296C39.1421 51.9867 39.1048 51.7573 39.0301 51.608C38.9661 51.448 38.8381 51.3413 38.6461 51.288C38.4541 51.224 38.1608 51.192 37.7661 51.192C37.7448 51.192 37.7341 51.16 37.7341 51.096C37.7341 51.032 37.7448 51 37.7661 51H44.1981C44.2941 51 44.3421 51.048 44.3421 51.144L44.3741 53.112C44.3741 53.144 44.3421 53.1653 44.2781 53.176C44.2248 53.176 44.1981 53.16 44.1981 53.128C44.1661 52.552 43.9901 52.1093 43.6701 51.8C43.3608 51.4907 42.9555 51.336 42.4541 51.336H41.4781C41.1155 51.336 40.8381 51.3627 40.6461 51.416C40.4648 51.4693 40.3368 51.5707 40.2621 51.72C40.1981 51.8693 40.1661 52.088 40.1661 52.376V59.64C40.1661 59.9173 40.1981 60.1307 40.2621 60.28C40.3368 60.4293 40.4595 60.5307 40.6301 60.584C40.8115 60.6373 41.0781 60.664 41.4301 60.664H42.7101C43.2221 60.664 43.6488 60.4827 43.9901 60.12C44.3421 59.7467 44.5715 59.2453 44.6781 58.616C44.6781 58.584 44.7101 58.5733 44.7741 58.584C44.8381 58.5947 44.8701 58.616 44.8701 58.648C44.8275 58.9253 44.7901 59.2613 44.7581 59.656C44.7368 60.0507 44.7261 60.4187 44.7261 60.76C44.7261 60.92 44.6408 61 44.4701 61ZM43.5741 57.272C43.5741 56.8027 43.4568 56.4667 43.2221 56.264C42.9981 56.0613 42.6195 55.96 42.0861 55.96H39.6861V55.624H42.1341C42.6461 55.624 43.0088 55.5387 43.2221 55.368C43.4461 55.1867 43.5581 54.8987 43.5581 54.504C43.5581 54.4827 43.5901 54.472 43.6541 54.472C43.7181 54.472 43.7501 54.4827 43.7501 54.504C43.7501 54.824 43.7448 55.0747 43.7341 55.256C43.7341 55.4267 43.7341 55.608 43.7341 55.8C43.7341 56.0453 43.7395 56.2853 43.7501 56.52C43.7608 56.7547 43.7661 57.0053 43.7661 57.272C43.7661 57.2933 43.7341 57.304 43.6701 57.304C43.6061 57.304 43.5741 57.2933 43.5741 57.272ZM48.7439 59.64C48.7439 59.96 48.7865 60.2053 48.8719 60.376C48.9572 60.536 49.1385 60.648 49.4159 60.712C49.6932 60.776 50.1039 60.808 50.6479 60.808C50.6799 60.808 50.6959 60.84 50.6959 60.904C50.6959 60.968 50.6799 61 50.6479 61C50.3065 61 49.9332 60.9947 49.5279 60.984C49.1332 60.9733 48.7012 60.968 48.2319 60.968C47.8799 60.968 47.5385 60.9733 47.2079 60.984C46.8879 60.9947 46.5999 61 46.3439 61C46.3225 61 46.3119 60.968 46.3119 60.904C46.3119 60.84 46.3225 60.808 46.3439 60.808C46.7385 60.808 47.0319 60.7813 47.2239 60.728C47.4159 60.6747 47.5439 60.568 47.6079 60.408C47.6719 60.248 47.7039 60.0133 47.7039 59.704V52.296C47.7039 51.9867 47.6719 51.7573 47.6079 51.608C47.5439 51.448 47.4159 51.3413 47.2239 51.288C47.0319 51.224 46.7385 51.192 46.3439 51.192C46.3225 51.192 46.3119 51.16 46.3119 51.096C46.3119 51.032 46.3225 51 46.3439 51C46.5999 51 46.8879 51.0107 47.2079 51.032C47.5279 51.0427 47.8639 51.048 48.2159 51.048C48.4932 51.048 48.8292 51.032 49.2239 51C49.6292 50.968 50.0345 50.952 50.4399 50.952C51.0479 50.952 51.5919 51.0427 52.0719 51.224C52.5625 51.4053 52.9519 51.688 53.2399 52.072C53.5279 52.456 53.6772 52.9573 53.6879 53.576C53.6879 54.1413 53.5812 54.6267 53.3679 55.032C53.1652 55.4373 52.8879 55.7733 52.5359 56.04C52.1945 56.296 51.8159 56.488 51.3999 56.616C50.9839 56.744 50.5679 56.808 50.1519 56.808C50.0239 56.808 49.8905 56.8027 49.7519 56.792C49.6239 56.7813 49.5012 56.76 49.3839 56.728C49.3412 56.7173 49.3252 56.68 49.3359 56.616C49.3572 56.5413 49.3839 56.5093 49.4159 56.52C49.5119 56.5413 49.6079 56.5573 49.7039 56.568C49.8105 56.5787 49.9065 56.584 49.9919 56.584C50.4292 56.584 50.8399 56.488 51.2239 56.296C51.6079 56.104 51.9172 55.8107 52.1519 55.416C52.3865 55.0107 52.5039 54.5093 52.5039 53.912C52.5039 53.3253 52.3972 52.8347 52.1839 52.44C51.9705 52.0347 51.6772 51.7253 51.3039 51.512C50.9305 51.2987 50.5145 51.192 50.0559 51.192C49.7039 51.192 49.4319 51.2133 49.2399 51.256C49.0585 51.288 48.9305 51.384 48.8559 51.544C48.7812 51.704 48.7439 51.9653 48.7439 52.328V59.64ZM56.9994 59.848L56.7274 59.592L63.7674 52.088L64.0234 52.328L56.9994 59.848ZM54.9194 61C54.898 61 54.8874 60.968 54.8874 60.904C54.8874 60.84 54.898 60.808 54.9194 60.808C55.314 60.808 55.6127 60.7813 55.8154 60.728C56.018 60.6747 56.1514 60.568 56.2154 60.408C56.29 60.248 56.3274 60.0133 56.3274 59.704V52.296C56.3274 51.9867 56.29 51.7573 56.2154 51.608C56.1514 51.448 56.018 51.3413 55.8154 51.288C55.6234 51.224 55.33 51.192 54.9354 51.192C54.914 51.192 54.9034 51.16 54.9034 51.096C54.9034 51.032 54.914 51 54.9354 51C55.1914 51 55.4794 51.0107 55.7994 51.032C56.13 51.0427 56.4714 51.048 56.8234 51.048C57.218 51.048 57.5754 51.0427 57.8954 51.032C58.2154 51.0107 58.5034 51 58.7594 51C58.7807 51 58.7914 51.032 58.7914 51.096C58.7914 51.16 58.7807 51.192 58.7594 51.192C58.3647 51.192 58.066 51.224 57.8634 51.288C57.6607 51.352 57.522 51.464 57.4474 51.624C57.3834 51.784 57.3514 52.0187 57.3514 52.328V59.704C57.3514 60.0133 57.3834 60.248 57.4474 60.408C57.5114 60.568 57.6447 60.6747 57.8474 60.728C58.0607 60.7813 58.3647 60.808 58.7594 60.808C58.7807 60.808 58.7914 60.84 58.7914 60.904C58.7914 60.968 58.7807 61 58.7594 61C58.4927 61 58.1994 60.9947 57.8794 60.984C57.57 60.9733 57.218 60.968 56.8234 60.968C56.4714 60.968 56.13 60.9733 55.7994 60.984C55.4687 60.9947 55.1754 61 54.9194 61ZM61.8954 61C61.874 61 61.8634 60.968 61.8634 60.904C61.8634 60.84 61.874 60.808 61.8954 60.808C62.3114 60.808 62.6154 60.7813 62.8074 60.728C63.01 60.6747 63.1434 60.568 63.2074 60.408C63.2714 60.248 63.3034 60.0133 63.3034 59.704V52.328C63.3034 52.0187 63.2714 51.784 63.2074 51.624C63.1434 51.464 63.01 51.352 62.8074 51.288C62.6154 51.224 62.3114 51.192 61.8954 51.192C61.874 51.192 61.8634 51.16 61.8634 51.096C61.8634 51.032 61.874 51 61.8954 51C62.162 51 62.45 51.0107 62.7594 51.032C63.0794 51.0427 63.4367 51.048 63.8314 51.048C64.1834 51.048 64.5247 51.0427 64.8554 51.032C65.186 51.0107 65.4794 51 65.7354 51C65.7567 51 65.7674 51.032 65.7674 51.096C65.7674 51.16 65.7567 51.192 65.7354 51.192C65.3407 51.192 65.042 51.224 64.8394 51.288C64.6367 51.3413 64.5034 51.448 64.4394 51.608C64.3754 51.7573 64.3434 51.9867 64.3434 52.296V59.704C64.3434 60.0133 64.3754 60.248 64.4394 60.408C64.5034 60.568 64.6367 60.6747 64.8394 60.728C65.042 60.7813 65.3407 60.808 65.7354 60.808C65.7567 60.808 65.7674 60.84 65.7674 60.904C65.7674 60.968 65.7567 61 65.7354 61C65.4794 61 65.186 60.9947 64.8554 60.984C64.5247 60.9733 64.1834 60.968 63.8314 60.968C63.4367 60.968 63.0794 60.9733 62.7594 60.984C62.45 60.9947 62.162 61 61.8954 61ZM75.2405 60.808C75.2618 60.808 75.2725 60.84 75.2725 60.904C75.2725 60.968 75.2618 61 75.2405 61C74.9738 61 74.6752 60.9947 74.3445 60.984C74.0245 60.9733 73.6885 60.968 73.3365 60.968C72.9632 60.968 72.6165 60.9733 72.2965 60.984C71.9872 60.9947 71.6992 61 71.4325 61C71.4112 61 71.4005 60.968 71.4005 60.904C71.4005 60.84 71.4112 60.808 71.4325 60.808C71.8378 60.808 72.1365 60.7813 72.3285 60.728C72.5205 60.6747 72.6485 60.568 72.7125 60.408C72.7765 60.248 72.8085 60.0133 72.8085 59.704V55.736L73.0965 55.816C72.7978 55.816 72.5312 55.8427 72.2965 55.896C72.0618 55.9493 71.8325 56.0613 71.6085 56.232C71.3952 56.392 71.1658 56.6373 70.9205 56.968C70.6752 57.2987 70.3872 57.7467 70.0565 58.312C69.6512 59.0267 69.3205 59.5707 69.0645 59.944C68.8192 60.3173 68.6218 60.5787 68.4725 60.728C68.3338 60.8773 68.2165 60.9627 68.1205 60.984C68.0352 60.9947 67.9445 61 67.8485 61H66.2005C66.1685 61 66.1525 60.968 66.1525 60.904C66.1525 60.84 66.1685 60.808 66.2005 60.808C66.6058 60.7973 66.9578 60.6907 67.2565 60.488C67.5552 60.2747 67.8485 59.96 68.1365 59.544C68.4352 59.128 68.7605 58.6107 69.1125 57.992C69.4325 57.4267 69.7312 56.9893 70.0085 56.68C70.2858 56.36 70.5792 56.1307 70.8885 55.992C71.2085 55.8533 71.5605 55.768 71.9445 55.736L72.0565 55.848C70.9045 55.8373 70.0352 55.6133 69.4485 55.176C68.8618 54.7387 68.5685 54.152 68.5685 53.416C68.5685 52.9253 68.6912 52.4987 68.9365 52.136C69.1925 51.7627 69.5392 51.4747 69.9765 51.272C70.4245 51.0587 70.9258 50.952 71.4805 50.952C71.7045 50.952 72.0032 50.968 72.3765 51C72.7498 51.032 73.0698 51.048 73.3365 51.048C73.6885 51.048 74.0245 51.0427 74.3445 51.032C74.6645 51.0107 74.9578 51 75.2245 51C75.2458 51 75.2565 51.032 75.2565 51.096C75.2565 51.16 75.2458 51.192 75.2245 51.192C74.8298 51.192 74.5312 51.224 74.3285 51.288C74.1365 51.3413 74.0032 51.448 73.9285 51.608C73.8645 51.7573 73.8325 51.9867 73.8325 52.296V59.704C73.8325 60.0133 73.8645 60.248 73.9285 60.408C74.0032 60.568 74.1418 60.6747 74.3445 60.728C74.5472 60.7813 74.8458 60.808 75.2405 60.808ZM69.6405 53.016C69.6405 53.7627 69.8538 54.3813 70.2805 54.872C70.7178 55.352 71.3632 55.592 72.2165 55.592C72.3552 55.592 72.5152 55.5867 72.6965 55.576C72.8778 55.5547 73.0218 55.528 73.1285 55.496L72.8085 55.608V52.328C72.8085 52.0187 72.7392 51.7787 72.6005 51.608C72.4725 51.4373 72.3018 51.32 72.0885 51.256C71.8858 51.192 71.6778 51.16 71.4645 51.16C70.2485 51.16 69.6405 51.7787 69.6405 53.016Z" fill="white"/>
</svg>
